<?xml version="1.0" encoding="utf-8"?>
<!-- Generator: Adobe Illustrator 21.0.2, SVG Export Plug-In . SVG Version: 6.00 Build 0)  -->
<svg version="1.1" id="Layer_1" xmlns="http://www.w3.org/2000/svg" xmlns:xlink="http://www.w3.org/1999/xlink" x="0px" y="0px"
	 viewBox="0 0 559.7 246.7" style="enable-background:new 0 0 559.7 246.7;" xml:space="preserve">
<style type="text/css">
	.st0{fill:#606161;}
</style>
<g>
	<path class="st0" d="M278.5,51.2h17v143.3h-17V51.2z"/>
	<path class="st0" d="M366,194.5h-17.4L310,99.8h18.4l29.6,74.3h0.4l28.1-74.3h17L366,194.5z"/>
	<path class="st0" d="M426.5,51.2c6.5,0,11.5,5.3,11.5,11.5c0,6.7-4.9,11.5-11.5,11.5c-6.7,0-11.5-4.9-11.5-11.5
		C415,56.5,420,51.2,426.5,51.2z M418.6,99.8h15.8v94.7h-15.8V99.8z"/>
	<path class="st0" d="M543.1,177.3C531.9,191.7,518.6,197,501,197c-29.8,0-48-22.3-48-49.8c0-29.3,20.6-49.8,48.6-49.8
		c26.7,0,44.9,18.2,44.9,49.6v5.1H470c1.2,16.4,13.8,30.4,31,30.4c13.6,0,22.7-4.9,30.2-14.4L543.1,177.3z M529.5,138.7
		c-0.6-16-11.1-26.7-28.5-26.7c-17.4,0-28.9,10.7-31,26.7H529.5z"/>
</g>
<path class="st0" d="M120.3,240.4C56.2,240.4,4,188.2,4,124.1C4,60,56.2,7.9,120.3,7.9c64.1,0,116.3,52.2,116.3,116.3
	C236.5,188.2,184.4,240.4,120.3,240.4z M120.3,12C58.4,12,8.1,62.3,8.1,124.1c0,61.8,50.3,112.2,112.2,112.2
	c61.8,0,112.2-50.3,112.2-112.2C232.4,62.3,182.1,12,120.3,12z"/>
<g>
	<path class="st0" d="M67.9,95c0,0-0.4-8.2,2.4-16.2c4.8-13.5,10.3-13.5,10.3-13.5s-3.1,4.8-0.2,6.3c2.8,1.5,6.1-10.7,30.8-23.8
		c31-16.4,42.3-10.5,42.3-10.5s-12.4,4.1-9.3,11.9c2.7,6.9,13.7,1.8,32.7,19.5c12.9,12,14.4,24,14.4,24s-13.5-29.7-54.8-29.7
		C95.1,63.1,67.9,95,67.9,95z"/>
	<path class="st0" d="M67.6,95.8l0-0.8c0-0.1-0.4-8.4,2.4-16.3C74.8,65.1,80.3,65,80.5,65h0.6l-0.3,0.5c0,0-1.8,2.8-1.3,4.7
		c0.1,0.5,0.5,0.9,0.9,1.2c0.1,0.1,0.2,0.1,0.3,0.1c0.7,0,1.8-1.2,3.5-3.1C88,64,95.1,56,110.9,47.6C142,31.1,153.4,37,153.6,37.1
		l0.7,0.4l-0.7,0.2c-0.1,0-7,2.4-9,6.7c-0.7,1.5-0.7,3.1-0.1,4.8c1.1,2.7,3.5,3.5,7.5,4.7c5.6,1.7,14,4.3,25.1,14.7
		c12.8,11.9,14.5,24.1,14.5,24.2l-0.6,0.2c-0.1-0.3-13.9-29.5-54.5-29.5c-40.6,0-68,31.4-68.3,31.8L67.6,95.8z M79.9,65.8
		c-1.6,0.5-5.6,2.8-9.3,13.2c-2.2,6.3-2.4,12.9-2.4,15.2c4.1-4.5,30.5-31.4,68.2-31.4c34.6,0,49.9,21.1,54,27.8
		c-1.1-4-4.4-12.8-13.8-21.6c-11-10.3-19.4-12.8-24.9-14.6c-4-1.3-6.7-2.1-7.9-5.1c-0.7-1.8-0.7-3.6,0.1-5.3c1.7-3.7,6.6-6,8.6-6.8
		c-3.1-0.9-15.2-3-41.2,10.8c-15.8,8.4-22.8,16.3-26.5,20.6c-1.9,2.1-2.9,3.3-4,3.3c-0.2,0-0.4,0-0.7-0.2c-0.7-0.4-1.1-0.9-1.3-1.6
		C78.5,68.8,79.3,66.8,79.9,65.8z"/>
</g>
<g>
	<path class="st0" d="M68.8,203.7c-5.2-3.7-8.2-11.4-7.1-19.4C65,161.8,96.9,139.5,120,133c22.8-6.4,53.7-6.8,54.5,11.6
		c1.3,31.2-81,64.3-109.1,35.3c-36-37.1,3.5-78.4,3.5-78.4s0.7,9.9,8.8,15c6.8,4.3,14.4,3.2,14.4,3.2s-11.5-5.2-6.9-9.7
		c4.6-4.5,25.2,10.4,47.7,10.7c22.5,0.3,33.5-8.3,33.5-8.3s-20.7-5.1-17-20.3c2.7-11.3,19.4-7.1,29.1,2.3
		c14.2,13.9,11.9,26.6,11.9,26.6s4.5-14.8,0.3-24.4c0,0-11.4-28.3-52.7-28.8c-41.3-0.5-69,30.8-69,30.8s-26.6,27-21.6,57.3
		c11.8,72.7,145.6,21.8,133.6-14.3c-5.5-16.5-33.7-18-61.5-10.1c-28.3,8.1-62.7,29.8-62.7,56c0,10,4.4,17.3,9.3,21.2
		c8.5,6.7,14.7,6.9,16.8,6.9c2.5,0,1.2-7.1-0.4-7.3C81.4,208.1,76.2,209,68.8,203.7z"/>
	<path class="st0" d="M82.7,215.8L82.7,215.8L82.7,215.8c-5.4,0-11.1-2.4-17-7c-5.9-4.6-9.4-12.7-9.4-21.5c0-2.9,0.4-5.8,1.2-8.6
		c-5.5-5.9-9.1-13.7-10.6-22.9c-4.9-30.1,21.5-57.3,21.7-57.6c0.3-0.3,27.9-30.9,68.2-30.9c0.4,0,0.7,0,1.1,0
		c41,0.5,52.8,28.8,53,29.1c4.1,9.7-0.3,24.5-0.3,24.7l-0.6-0.2c0-0.1,2.1-12.7-11.8-26.3c-5.5-5.4-13.3-9-19.4-9
		c-3.4,0-7.8,1.1-9.1,6.5c-3.5,14.7,16.6,19.8,16.8,19.9l0.7,0.2l-0.5,0.4c-0.1,0.1-11,8.4-32.6,8.4c-0.4,0-0.8,0-1.1,0
		c-12-0.2-23.7-4.6-32.3-7.8c-5.5-2.1-9.9-3.7-12.7-3.7c-1.1,0-1.9,0.3-2.4,0.8c-0.8,0.8-1.1,1.6-1,2.5c0.6,3.4,7.6,6.6,7.7,6.6
		l1,0.5L92,120c0,0-0.9,0.1-2.2,0.1c-2.6,0-7.6-0.4-12.3-3.4c-6.9-4.3-8.5-12.1-8.8-14.5c-1.9,2.1-9,10.5-13.7,22.1
		c-4.9,12.2-8.1,30.4,4.9,48.4c9.6-19.8,36.7-35.2,59.4-41.7c10.7-3.1,21.3-4.7,30.6-4.7c17,0,28.1,5.3,31.3,15
		c1.8,5.5,0.5,11.5-4.1,17.8c-13.3,18.4-49.9,33.9-79.9,33.9c-14.2,0-26.2-3.4-34.8-10c-0.1,0.4-0.2,0.8-0.2,1.2
		c-1.1,7.7,1.7,15.3,6.9,19.1c4.1,2.9,8.2,4.4,12,4.4c0.3,0,0.5,0,0.7,0c0.2,0,0.4,0,0.5,0c1.4,0.1,2.2,3.4,2.1,5.4
		C84.3,214.9,83.7,215.8,82.7,215.8z M58,179.3c-0.7,2.7-1.1,5.4-1.1,8.1c0,8.6,3.4,16.4,9.1,20.9c5.8,4.5,11.4,6.8,16.6,6.8l0,0.3
		v-0.3l0,0c0.9,0,1-1.2,1.1-1.9c0.1-2.1-0.9-4.7-1.5-4.7c-0.1,0-0.2,0-0.4,0c-0.2,0-0.5,0-0.8,0c-4,0-8.2-1.5-12.4-4.6
		c-5.5-3.9-8.4-11.9-7.2-19.8c0.1-0.5,0.2-1.1,0.3-1.6v0C60.4,181.6,59.1,180.4,58,179.3z M62.4,182.3c8.5,6.6,20.5,10,34.6,10
		c29.9,0,66.2-15.4,79.4-33.7c4.4-6.1,5.7-11.9,4-17.2c-3.1-9.4-14-14.5-30.7-14.5c-9.2,0-19.7,1.6-30.4,4.7
		c-22.7,6.5-49.8,21.9-59.2,41.6c1,1.3,2,2.6,3.1,3.9c7.9-19.8,35.4-38.5,56.6-44.4c9.2-2.6,19-4,27.5-4c17.2,0,27,5.6,27.4,15.9
		c0.3,6.3-2.9,13.1-9.2,19.7c-14.8,15.4-44.1,27.1-68.1,27.1c-14,0-25.3-3.9-32.4-11.3c-0.5-0.5-1.1-1.1-1.6-1.7
		C63.1,179.7,62.7,181,62.4,182.3z M63.8,177.7c0.6,0.6,1.2,1.3,1.8,1.9c7,7.3,18.1,11.1,31.9,11.1c23.9,0,52.9-11.6,67.6-26.9
		c6.2-6.4,9.3-13.1,9-19.2c-0.6-13.3-17-15.3-26.8-15.3c-8.5,0-18.2,1.4-27.3,4C98.9,139.3,71.4,157.9,63.8,177.7z M58.2,178.5
		c1.1,1.2,2.3,2.3,3.6,3.3c0.3-1.3,0.7-2.7,1.2-4c-1.1-1.3-2.2-2.6-3.2-3.9C59.2,175.5,58.6,177,58.2,178.5z M136.8,68
		c-40.1,0-67.5,30.4-67.7,30.7c-0.3,0.3-26.4,27.3-21.6,57c1.5,9,4.9,16.5,10.2,22.3c0.5-1.5,1.1-3.1,1.8-4.6l0,0
		c-13.4-18.3-10.2-36.9-5.2-49.3c5.5-13.5,14.2-22.7,14.3-22.8l0.5-0.5l0.1,0.7c0,0.1,0.8,9.8,8.6,14.7c4.5,2.9,9.5,3.3,12,3.3
		c0.4,0,0.7,0,1,0c-2.1-1.1-6.5-3.7-7-6.6c-0.2-1.1,0.2-2.2,1.2-3.1c0.7-0.6,1.6-0.9,2.9-0.9c2.9,0,7.4,1.7,13,3.8
		c9,3.4,20.2,7.6,32.1,7.7c0.4,0,0.8,0,1.1,0c18.6,0,29.2-6.2,31.6-7.8c-3.6-1.1-19.9-6.7-16.6-20.5c1.1-4.5,4.5-7,9.7-7
		c6.3,0,14.3,3.7,19.9,9.2c10,9.7,11.8,19,12.1,23.7c1-4.8,2.5-14.4-0.4-21.2c-0.1-0.3-11.8-28.1-52.4-28.6
		C137.5,68,137.2,68,136.8,68z"/>
</g>
<g>
	<path class="st0" d="M206.6,221c5,0,9.1,3.9,9.1,9c0,5.2-4.2,9.1-9.1,9.1c-5,0-9.1-3.9-9.1-9C197.5,224.9,201.6,221,206.6,221z
		 M206.6,237.8c4.3,0,7.7-3.4,7.7-7.8c0-4.4-3.4-7.7-7.7-7.7c-4.3,0-7.7,3.3-7.7,7.8C198.9,234.4,202.3,237.8,206.6,237.8z
		 M203.2,224.8h3.9c2.5,0,3.7,0.9,3.7,3c0,1.9-1.2,2.7-2.8,2.9l3,4.6h-1.6l-2.9-4.5h-1.9v4.5h-1.5V224.8z M204.7,229.5h1.8
		c1.5,0,2.8-0.1,2.8-1.7c0-1.5-1.2-1.6-2.4-1.6h-2.3V229.5z"/>
</g>
</svg>
