<?xml version="1.0" encoding="UTF-8" standalone="no"?>
<?xml-stylesheet type="text/css" href="/css/svg-stylesheet.css" ?>
<!DOCTYPE svg PUBLIC "-//W3C//DTD SVG 1.1//EN" "http://www.w3.org/Graphics/SVG/1.1/DTD/svg11.dtd">
<svg width="100%" height="100%" viewBox="0 0 6000 3750" version="1.1" xmlns="http://www.w3.org/2000/svg" xmlns:xlink="http://www.w3.org/1999/xlink" xml:space="preserve" xmlns:serif="http://www.serif.com/" style="fill-rule:evenodd;clip-rule:evenodd;stroke-linejoin:round;stroke-miterlimit:1.41421;">
	<g id="shapes">
		<path id="shapes__purple" d="M4140.29,2239.36c228.418,-363.527 222.579,-936.611 164.806,-1302.09c-41.775,-264.275 -117.708,-734.744 -748.671,-797.784c-335.92,-33.562 -630.936,372.305 -1023.45,630.975c-344.754,227.193 -807.951,286.469 -848.841,578.348c-17.914,127.871 295.871,1062.32 601.451,1380.89c310.82,324.033 933.494,560.727 1256.78,439.36c237.075,-89.002 434.965,-670.344 597.926,-929.696Z" style="fill:#2a044c;"/>
		<path id="shapes__yellow" d="M2977.67,1279.47c-208.7,255.552 -366.975,571.181 -298.508,819.806c68.467,248.626 247.73,499.266 736.425,596.632c260.177,51.837 503.014,231.685 831.535,68.039c288.545,-143.731 485.641,-374.475 541.661,-590.934c24.542,-94.83 58.015,-485.317 -66.397,-741.369c-124.412,-256.051 -190.422,-520.718 -276.191,-659.386c-125.359,-202.677 -552.563,-250.023 -708.623,-234.651c-408.783,40.267 -611.009,559.544 -759.902,741.863Z" style="fill:#f7d46e;"/>
		<path id="shapes__green" d="M1612.12,2217.23c220.968,-106.979 429.665,-280.134 602.081,-608.269c143.492,-273.089 116.756,-480.544 -36.11,-776.722c-49.245,-95.414 -324.566,-486.964 -603.923,-525.15c-282.181,-38.572 -544.963,32.995 -624.588,77.997c-62.93,35.567 -241.222,101.962 -223.619,365.133c7.106,106.248 67.717,285.493 196.427,389.28c147.79,119.174 272.23,-99.985 387.778,-147.36c193.782,-79.451 455.112,312.762 115.196,329.499c-339.916,16.736 -530.972,163.799 -584.355,219.695c-61.141,64.019 -181.349,291.568 -6.932,419.437c237.024,173.768 527.562,377.729 778.045,256.46Z" style="fill:#00424d;"/>
		<path id="shapes__pink" d="M1735.78,1544.76c-144.659,54.948 -122.004,284.061 -512.55,616.064c-143.168,121.707 -186.716,653.256 71.981,792.896c459.736,248.158 1077.49,0 1181.3,-70.904c191.233,-130.614 706.429,-256.701 853.037,-114.622c238.534,231.164 410.892,865.14 620.646,837.32c436.255,-57.859 538.931,-970.768 518.744,-1124.95c-45.499,-347.493 -262.66,-662.334 -389.94,-781.254c-244.449,-228.394 -1145.55,298.36 -1463.34,30.764c-220.081,-185.316 -584.718,-297.429 -879.876,-185.316Z" style="fill:#e2a89e;"/>
		<path id="shapes__red" d="M3840.66,1860.8c-167.902,156.733 -295.236,350.311 -240.153,502.795c55.082,152.485 199.301,306.205 592.461,365.921c209.315,31.791 266.878,41.773 360.645,-224.938c39.065,-111.117 -13.464,-147.093 31.605,-279.849c19.744,-58.16 115.252,-237.269 238.249,-296.412c167.83,-80.701 242.637,-289.382 173.635,-374.429c-100.853,-124.303 -419.543,-157.508 -545.094,-148.08c-328.87,24.696 -491.562,343.174 -611.348,454.992Z" style="fill:#b73649;"/>
		<path id="shapes__blue--light" d="M4090.94,2690.96c-24.219,68.083 -22.631,152.219 143.968,205.481c200.452,64.084 307.613,-20.363 413.887,-66.238c160.975,-69.488 167.029,-278.788 317.254,-407.734c110.149,-94.548 278.686,-84.94 257.27,-254.706c-18.809,-149.109 -65.341,-200.805 -229.787,-279.595c-112.966,-54.125 -182.028,73.317 -318.842,117.234c-169.152,54.298 -219.618,271.452 -291.024,375.6c-150.392,219.351 -260.528,219.444 -292.726,309.958Z" style="fill:#57a1f8;"/>
		<path id="shapes__blue" d="M1112.89,2422.18c-187.895,118.827 -216.393,396.909 -132.197,588.42c96.625,219.782 643.602,572.402 880.669,455.612c63.487,-31.277 166.969,-128.866 91.961,-208.244c-202.236,-214.019 -42.299,-800.782 -138.837,-921.232c-111.939,-139.666 -382.239,-116.521 -701.596,85.444Z" style="fill:#160c8e;"/>
		<path id="shapes__black" d="M2692.67,3134.3c-147.068,-6.094 -189.05,65.109 -329.557,112.159c-103.903,34.792 -167.098,78.978 -158.317,149.56c8.781,70.583 97.284,161.974 275.651,168.75c178.367,6.776 581.944,-45.558 628.776,-134.391c48.144,-91.321 -48.342,-87.786 -148.763,-159.163c-100.421,-71.378 -120.722,-130.82 -267.79,-136.915Z" style="fill:#040404;"/>
	</g>
</svg>