<svg height="779" viewBox="0 0 192 779" width="192" xmlns="http://www.w3.org/2000/svg"><path d="m148.734651 478.416761-23.53125-182.545455h55.262784l6.417614 112.308239h1.426136l48.132103-112.308239h43.497159l11.052556 112.664773h1.426137l43.497159-112.664773h55.262784l-84.142045 182.545455h-47.419035l-13.904829-101.96875h-1.426136l-48.132103 101.96875zm399.483807-88.063921c-3.327669 19.847164-9.923483 36.485255-19.787642 49.914773-9.86416 13.429518-21.837643 23.560927-35.92081 30.394531-14.083167 6.833605-29.146582 10.250355-45.190696 10.250355-17.113722 0-31.969161-3.713859-44.566761-11.14169-12.597601-7.427831-21.778262-18.302012-27.542259-32.622869-5.763997-14.320858-6.922721-31.820564-3.476207-52.499645 3.208822-19.847164 9.745215-36.544677 19.609375-50.09304 9.864159-13.548363 21.897064-23.798616 36.099076-30.751065 14.202013-6.95245 29.384271-10.428622 45.54723-10.428622 16.994877 0 31.776038 3.74357 44.343928 11.230823 12.56789 7.487254 21.71884 18.450567 27.453125 32.89027s6.878154 32.058253 3.431641 52.856179zm-49.914773-5.704545c2.495751-15.687579 1.500437-27.631351-2.985973-35.831676s-12.523202-12.300426-24.110618-12.300426c-13.191827 0-24.080864 4.738885-32.667436 14.216796-8.586572 9.477912-14.216784 22.684397-16.890803 39.619851-2.852287 15.865847-1.842117 27.735342 3.03054 35.608843 4.872657 7.8735 13.013437 11.810191 24.422585 11.810191 13.01356 0 23.754042-4.620041 32.221769-13.860262 8.467727-9.240222 14.127649-22.327863 16.979936-39.263317zm46.515056 93.768466 30.305398-182.545455h78.794034c13.548363 0 24.987051 2.466003 34.316406 7.398083 9.329356 4.932079 16.044014 12.032979 20.144177 21.302912 4.100162 9.269932 5.080621 20.3818 2.941406 33.335937-2.079793 12.657024-6.580991 23.38265-13.503729 32.177202-6.922738 8.794551-15.642881 15.53892-26.160689 20.233309l25.759588 68.098012h-53.836647l-22.015981-60.254262h-17.113636l-10.072088 60.254262zm66.047941-98.759943h17.381037c8.735129 0 15.836028-1.66381 21.302912-4.991478 5.466883-3.327668 8.824212-8.913313 10.072088-16.757102 1.247875-7.843789-.282235-13.548278-4.590377-17.113636-4.308142-3.565359-10.740547-5.348012-19.297407-5.348012h-17.470171zm92.41882 98.759943 30.305398-182.545455h49.558239l-12.122159 73.802557h2.495738l67.028409-73.802557h57.758523l-74.872159 81.289773 45.992898 101.255682h-59.184659l-29.235796-68.454546-20.322443 21.74858-7.84375 46.705966z" fill="none" stroke="#f2eff5" stroke-width="3" transform="matrix(0 1 -1 0 482.9125 -123.203401)"/></svg>