<?xml version="1.0" encoding="utf-8"?>
<!-- Generator: Adobe Illustrator 21.0.0, SVG Export Plug-In . SVG Version: 6.00 Build 0)  -->
<svg version="1.1" id="Layer_1" xmlns="http://www.w3.org/2000/svg" xmlns:xlink="http://www.w3.org/1999/xlink" x="0px" y="0px"
	 viewBox="0 0 722.1 306.8" style="enable-background:new 0 0 722.1 306.8;" xml:space="preserve">
<style type="text/css">
	.st0{fill:#ED3024;}
</style>
<g>
	<path class="st0" d="M709.3,106.8c-5.3-10.7-18.2-22.1-31.5-22.1c-0.7,0-1.4,0-2.1,0.1c-20.8,1.9-46.1,27.2-47.4,47.5
		c-1.3,21,14.4,29.7,27,36.7c9.3,5.2,17.4,9.7,16,17.7c-2.1,11.8-20.6,13.5-31.5,13.5c-4,0-7.8-0.2-10.9-0.6c-3.4-0.4-6.1,2.8-5,6.1
		c0.6,2,1.6,4.2,2.8,6.4c3.2,5.8,9.4,13.1,20.5,14.9c1.4,0.2,3.1,0.3,5,0.3c4,0,17.9-0.6,31.2-8.8c12.8-7.9,20.4-19.8,22.5-35.4
		c2-15.3-11.5-25.2-23.4-33.9c-8.7-6.4-16.3-11.9-15.9-18.5c0.2-3.9,3-8.1,7.4-11.2c4.8-3.4,11-5.2,17.4-5.3
		c5.4-0.1,11.3,1,16.4,3.7c1.8,0.9,4-0.4,4-2.4C711.8,113.1,711,110.1,709.3,106.8"/>
	<path class="st0" d="M309.9,195.2c-6.5,0.7-19.7,0.1-23-16.6c-0.8-9.7-0.3-21.7,0.9-34c1.1-8.3,5.2-26.3,7.3-35.7
		c1.3-4.8,2.5-8.9,0.8-13.4c-3.6-10.5-21.2-22.2-44.3-21.6c-35.7,0.6-67.5,23.5-73.4,68.6c-5.4,42.6,11.1,76,36.9,74.1
		c0.2,0,0.5-0.1,0.7-0.1c17.1-0.2,31.6-11.4,39.4-25.3c0.8,3.4,4.4,17.6,13.7,22.9c8.5,4.8,30,7.5,42.7-15.9
		C312.4,196.8,311.4,195.1,309.9,195.2 M251,146.1c-8,29.8-19.6,41.5-27.2,39.7c-9.7-2.5-13.7-26.5-9-45.7
		c4.3-17.4,15.4-36.1,34.4-38.5c2.9-0.4,5.8-0.4,8.7,0C259.6,115.1,251,146.1,251,146.1"/>
	<path class="st0" d="M471.5,80.1c-33.3-5-54.3,11.6-66.3,33c-9.9,17.7-17.7,59.3,2.8,88.4c20.4,29,52.9,22.5,64.9,17.3
		c11.4-5,24.2-17.2,24.4-36.6c0-1.2-1.6-2-2.7-1.1c-8.1,6.3-28.7,23.6-49,11.6c-8.1-4.8-11.7-16.1-12.9-27.8
		c17.9,8.1,39.8,4.2,52.8-9.4c8.6-8.8,10.9-19.9,11.9-23.7C505.1,103.9,492.3,83.3,471.5,80.1 M433.7,152.5
		c-0.6,0.1-1.2,0.1-1.7,0.1c0.1-7.3,0.8-14,1.6-18.1c2.2-11.5,9.2-28,24.6-26.5C473.6,109.5,460.8,150.4,433.7,152.5"/>
	<path class="st0" d="M385,186.1c0,0-19.4,23.2-31.9-5.4c0-0.5-1.2-2.8-1.2-3.4c0,0,0.3-0.5,0.8-1.4c6.8-10.3,17.4-27.7,33.2-57.3
		c35.3-65.8,30.4-94.5,10.4-108.2c-5.6-4-13-7.1-22.3-7.1c-56.8,0-66.7,73.7-67.6,95.2c-4,88.7,23.8,126.8,46.8,127.4
		c29.4,0.7,34.8-28.9,35.7-34.9C389.8,185,388.1,182.5,385,186.1 M343,138.5c-4.1-19.8-2-52.4,6.1-80.9
		c5.1-17.8,15.6-24.7,23.3-22.3c26.4,8-19,87.6-28.1,100.9L343,138.5z"/>
	<path class="st0" d="M109.6,136.7c0,0,28.2-13.6,46.2-24.5c18.9-11.5,46.6-31.2,46.2-60.6c-0.3-21.5-14-48.4-61.4-50.8
		C103.3-1.2,49.8,15,28.6,22.1c-6.7,2.2-12.3,6.9-15.5,13.2c-6.6,13-6.5,23.9-5.7,29.6c0.3,2.1,2.5,3.3,4.4,2.4
		c7.4-3.5,20.3-8.7,33.6-13.8l-8.6,191.7c-0.1,2.6,2.6,4.4,4.9,3.2c13.8-6.9,24.9-17.5,30.5-23.5c2.5-2.6,3.9-6.1,4-9.7l2.1-65.2
		c34.5,36.1,71.8,90.3,80.8,105.5c1.4,2.4,4.9,2.3,6.1-0.1c4.1-8.1,9-21.4,11.4-33.1c3-14.8-8.5-26.9-15.2-33.7
		C154.6,181.7,109.6,136.7,109.6,136.7 M81.8,40.5c26.8-8.3,72.7-14.8,79,8.5c6.4,23.4-25,39.4-49,52.9
		c-11.4,6.4-23.2,12.2-32.5,16.6L81.8,40.5z"/>
	<path class="st0" d="M620.3,73.3c2.3,1.2,4.3,2.6,4.3,6c0,0.2,0,0.4,0,0.6c0,0.4-0.1,0.9-0.1,1.4c-0.2,1.2-0.5,2.3-0.9,3.2
		c0,0.1-0.1,0.2-0.1,0.3c-0.1,0.3-0.3,0.6-0.4,0.9c-0.1,0.2-0.2,0.3-0.2,0.5c-0.2,0.4-0.4,0.8-0.7,1.1c0,0,0,0,0,0
		c-1.1,1.6-2.4,3-3.6,4.3l0,0c-0.1,0.1-0.2,0.2-0.3,0.3c-0.9,0.9-0.2,2.6,1,2.3c13.3-3.2,22.9-12,26.9-24.9
		c5.1-16.6-4.3-29.7-17.3-30.2c-10.6-0.4-20,8.7-17.9,21.4C612.1,68.7,616.9,72,620.3,73.3"/>
	<path class="st0" d="M599.9,93.1c-0.3-0.3-0.5-0.6-0.6-0.8c-3-3.4-4.9-4.3-7.4-1.9c-2.8,2.7-6.9,42.6-13.5,65.9
		c-5,17.8-16,30-27.2,29.5c-11.2-0.5-7.1-33.7-6.7-66.6l0,0c0.1-2.8,0.1-5.1-0.1-6.8c-0.2-1.6-0.7-3.2-1.4-4.8
		c-0.2-0.3-0.4-0.6-0.5-0.9c-1-2-2.4-4-4.1-6c-0.1-0.2-0.3-0.3-0.4-0.5c-0.1-0.1-0.3-0.3-0.4-0.5c-0.1-0.2-0.3-0.3-0.4-0.5
		c-0.2-0.2-0.4-0.4-0.5-0.6c-0.1-0.1-0.1-0.1-0.2-0.2c-2.8-2.9-6.2-5.7-9.5-8.1c-13.1-8.8-15.8-7.9-17.7-6.9c-1.8,0.9-1.9,3.3-1,7.4
		c0.5,2.5,4.9,14.8,4.6,36.8c0,1,0,1.9-0.1,2.8c0,0.4,0,0.7,0,1.1c-0.2,35.9-7.5,91.3,27.7,95c15.3,1.3,31.8-18.6,31.8-18.6
		s-0.8,3.1-2.1,7c-20.8,69-36.2,78.2-44.9,85c-1.5,1.2-1,3.6,0.9,4c28.6,6.9,46.2-9.4,55-25.5c23.5-42.9,43.2-149.2,33.6-164.5
		C609.3,105.6,604.1,98.2,599.9,93.1"/>
</g>
</svg>
