<?xml version="1.0" encoding="UTF-8" standalone="no"?><!DOCTYPE svg PUBLIC "-//W3C//DTD SVG 1.1//EN" "http://www.w3.org/Graphics/SVG/1.1/DTD/svg11.dtd"><svg width="100%" height="100%" viewBox="0 0 96 70" version="1.1" xmlns="http://www.w3.org/2000/svg" xmlns:xlink="http://www.w3.org/1999/xlink" xml:space="preserve" xmlns:serif="http://www.serif.com/" style="fill-rule:evenodd;clip-rule:evenodd;stroke-linecap:square;stroke-miterlimit:1.5;"><g><path d="M7,2.686l0,-2l-6.5,0l0,5.5l11,0l0,6l-5,0l0,-1.5" style="fill:none;stroke:#000;stroke-width:1.5px;"/><path d="M0.5,12l2,0" style="fill:none;stroke:#000;stroke-width:1.5px;"/><path d="M12,0.686l0,1.5" style="fill:none;stroke:#000;stroke-width:1.5px;"/><path d="M19.5,8.814l0,-1.75l5,0l0,4.75l-8.5,0l0,-11.128l1.901,0" style="fill:none;stroke:#000;stroke-width:1.5px;"/><path d="M21,0.686l10.5,0l0,9.5l-4,0" style="fill:none;stroke:#000;stroke-width:1.5px;"/><path d="M35.5,0.686l13,0" style="fill:none;stroke:#000;stroke-width:1.5px;"/><path d="M16,16l1.5,0" style="fill:none;stroke:#000;stroke-width:1.5px;"/><path d="M20.25,16l0,4.5l-4,0" style="fill:none;stroke:#000;stroke-width:1.5px;"/><path d="M0.5,18l0,-2l12,0l0,8l-6,0l0,-3.5l3,0" style="fill:none;stroke:#000;stroke-width:1.5px;"/><path d="M0.5,20.5l0,11l8.5,0l0,-4.5" style="fill:none;stroke:#000;stroke-width:1.5px;"/><path d="M0.5,35l0,13.5" style="fill:none;stroke:#000;stroke-width:1.5px;"/></g></svg>